<svg xmlns="http://www.w3.org/2000/svg" width="66" height="15" version="1.2" viewBox="0 0 66 15"><title>star-off-svg</title><style>.s0{fill:#bbb}</style><path id="Layer" d="m5.6 2.4c0.4-1.4 2.4-1.4 2.8 0l0.5 1.5c0.2 0.6 0.8 1 1.4 1h1.6c1.4 0 2.1 1.9 0.9 2.7l-1.3 0.9c-0.5 0.4-0.7 1.1-0.5 1.7l0.5 1.5c0.4 1.4-1.2 2.5-2.4 1.7l-1.2-0.9c-0.5-0.4-1.3-0.4-1.8 0l-1.2 0.9c-1.2 0.8-2.8-0.3-2.4-1.7l0.5-1.5c0.2-0.6 0-1.3-0.5-1.7l-1.3-0.9c-1.2-0.8-0.5-2.7 0.9-2.7h1.6c0.6 0 1.2-0.4 1.4-1z" class="s0"/><path id="Layer" d="m18.6 2.4c0.4-1.4 2.4-1.4 2.8 0l0.5 1.5c0.2 0.6 0.8 1 1.4 1h1.6c1.4 0 2.1 1.9 0.9 2.7l-1.3 0.9c-0.5 0.4-0.7 1.1-0.5 1.7l0.5 1.5c0.4 1.4-1.2 2.5-2.4 1.7l-1.2-0.9c-0.5-0.4-1.3-0.4-1.8 0l-1.2 0.9c-1.2 0.8-2.8-0.3-2.4-1.7l0.5-1.5c0.2-0.6 0-1.3-0.5-1.7l-1.3-0.9c-1.2-0.8-0.5-2.7 0.9-2.7h1.6c0.6 0 1.2-0.4 1.4-1z" class="s0"/><path id="Layer" d="m31.6 2.4c0.4-1.4 2.4-1.4 2.8 0l0.5 1.5c0.2 0.6 0.8 1 1.4 1h1.6c1.4 0 2.1 1.9 0.9 2.7l-1.3 0.9c-0.5 0.4-0.7 1.1-0.5 1.7l0.5 1.5c0.4 1.4-1.2 2.5-2.4 1.7l-1.2-0.9c-0.5-0.4-1.3-0.4-1.8 0l-1.2 0.9c-1.2 0.8-2.8-0.3-2.4-1.7l0.5-1.5c0.2-0.6 0-1.3-0.5-1.7l-1.3-0.9c-1.2-0.8-0.5-2.7 0.9-2.7h1.6c0.6 0 1.2-0.4 1.4-1z" class="s0"/><path id="Layer" d="m44.6 2.4c0.4-1.4 2.4-1.4 2.8 0l0.5 1.5c0.2 0.6 0.8 1 1.4 1h1.6c1.4 0 2.1 1.9 0.9 2.7l-1.3 0.9c-0.5 0.4-0.7 1.1-0.5 1.7l0.5 1.5c0.4 1.4-1.2 2.5-2.4 1.7l-1.2-0.9c-0.5-0.4-1.3-0.4-1.8 0l-1.2 0.9c-1.2 0.8-2.8-0.3-2.4-1.7l0.5-1.5c0.2-0.6 0-1.3-0.5-1.7l-1.3-0.9c-1.2-0.8-0.5-2.7 0.9-2.7h1.6c0.6 0 1.2-0.4 1.4-1z" class="s0"/><path id="Layer" d="m57.6 2.4c0.4-1.4 2.4-1.4 2.8 0l0.5 1.5c0.2 0.6 0.8 1 1.4 1h1.6c1.4 0 2.1 1.9 0.9 2.7l-1.3 0.9c-0.5 0.4-0.7 1.1-0.5 1.7l0.5 1.5c0.4 1.4-1.2 2.5-2.4 1.7l-1.2-0.9c-0.5-0.4-1.3-0.4-1.8 0l-1.2 0.9c-1.2 0.8-2.8-0.3-2.4-1.7l0.5-1.5c0.2-0.6 0-1.3-0.5-1.7l-1.3-0.9c-1.2-0.8-0.5-2.7 0.9-2.7h1.6c0.6 0 1.2-0.4 1.4-1z" class="s0"/></svg>